<svg width="88" height="104" viewBox="0 0 88 104" xmlns="http://www.w3.org/2000/svg">
  <defs>
    <linearGradient id="pinG" x1="0%" y1="0%" x2="100%" y2="100%">
      <stop offset="0%" style="stop-color:#2357d8"/>
      <stop offset="100%" style="stop-color:#0f9f8f"/>
    </linearGradient>
    <clipPath id="pinClip">
      <path d="M44 0 C20 0 0 20 0 44 C0 62 20 82 36 96 C40 100 44 104 44 104 C44 104 48 100 52 96 C68 82 88 62 88 44 C88 20 68 0 44 0 Z"/>
    </clipPath>
  </defs>
  <path d="M44 0 C20 0 0 20 0 44 C0 62 20 82 36 96 C40 100 44 104 44 104 C44 104 48 100 52 96 C68 82 88 62 88 44 C88 20 68 0 44 0 Z" fill="url(#pinG)"/>
  <g clip-path="url(#pinClip)">
    <rect x="0" y="0" width="88" height="104" fill="url(#pinG)"/>
    <rect x="14" y="42" width="60" height="62" fill="#fff" opacity="0.95"/>
    <polygon points="44,20 78,42 10,42" fill="#fff" opacity="0.85"/>
    <polygon points="44,20 54,42 34,42" fill="#fff" opacity="0.5"/>
    <rect x="20" y="48" width="10" height="9" rx="1" fill="url(#pinG)"/>
    <rect x="35" y="48" width="10" height="9" rx="1" fill="url(#pinG)"/>
    <rect x="50" y="48" width="10" height="9" rx="1" fill="url(#pinG)"/>
    <rect x="20" y="63" width="10" height="9" rx="1" fill="url(#pinG)"/>
    <rect x="35" y="63" width="10" height="9" rx="1" fill="url(#pinG)"/>
    <rect x="50" y="63" width="10" height="9" rx="1" fill="url(#pinG)"/>
    <rect x="36" y="78" width="16" height="26" rx="2" fill="url(#pinG)" opacity="0.5"/>
  </g>
  <path d="M44 0 C20 0 0 20 0 44 C0 62 20 82 36 96 C40 100 44 104 44 104 C44 104 48 100 52 96 C68 82 88 62 88 44 C88 20 68 0 44 0 Z" fill="none" stroke="#fff" stroke-width="1.5" opacity="0.3"/>
</svg>
